<?xml version="1.0" encoding="UTF-8" standalone="no"?>
<svg
   viewBox="0 0 348 348"
   fill="none"
   version="1.1"
   id="svg287"
   sodipodi:docname="Futuristic Combo Lock.svg"
   inkscape:version="1.2.2 (732a01da63, 2022-12-09)"
   xmlns:inkscape="http://www.inkscape.org/namespaces/inkscape"
   xmlns:sodipodi="http://sodipodi.sourceforge.net/DTD/sodipodi-0.dtd"
   xmlns="http://www.w3.org/2000/svg"
   xmlns:svg="http://www.w3.org/2000/svg">
  <defs
     id="defs291" />
  <sodipodi:namedview
     id="namedview289"
     pagecolor="#ffffff"
     bordercolor="#666666"
     borderopacity="1.0"
     inkscape:showpageshadow="2"
     inkscape:pageopacity="0.0"
     inkscape:pagecheckerboard="0"
     inkscape:deskcolor="#d1d1d1"
     showgrid="false"
     inkscape:zoom="1.9181287"
     inkscape:cx="105.0503"
     inkscape:cy="181.42682"
     inkscape:window-width="1920"
     inkscape:window-height="1017"
     inkscape:window-x="-8"
     inkscape:window-y="-8"
     inkscape:window-maximized="1"
     inkscape:current-layer="svg287" />
  <path
     d="M5.079 5.776h336.913v337.67H5.08z"
     stroke-width="2"
     stroke="#000"
     id="path283" />
  <path
     d="M282.734 40.554c0-8.376 6.966-15.165 15.56-15.165 4.126 0 8.084 1.597 11.001 4.441 2.918 2.844 4.558 6.702 4.558 10.724 0 8.376-6.966 15.165-15.56 15.165-8.593 0-15.559-6.79-15.559-15.165z"
     stroke-width="2"
     stroke="#000"
     id="path285" />
  <circle
     style="fill:none;stroke:#000000;stroke-width:2.87473;stroke-dasharray:none;stop-color:#000000"
     id="path298"
     cx="174"
     cy="174"
     r="123.20288" />
  <path
     style="fill:none;stroke:#000000;stroke-width:2.87473;stroke-dasharray:none;stop-color:#000000"
     d="M 50.79712,174 H 297.20287"
     id="path1040" />
  <path
     style="fill:none;stroke:#000000;stroke-width:2.87473;stroke-dasharray:none;stop-color:#000000"
     d="M 74.326776,101.58317 273.67322,246.41684"
     id="path4055" />
  <path
     style="fill:none;stroke:#000000;stroke-width:2.87473;stroke-dasharray:none;stop-color:#000000"
     d="M 135.92821,56.827102 212.07178,291.17291"
     id="path4057" />
  <path
     style="fill:none;stroke:#000000;stroke-width:2.87473;stroke-dasharray:none;stop-color:#000000"
     d="M 212.07178,56.827102 135.92821,291.17291"
     id="path4059" />
  <path
     style="fill:none;stroke:#000000;stroke-width:2.87473;stroke-dasharray:none;stop-color:#000000"
     d="M 273.67322,101.58317 74.326774,246.41684"
     id="path4061" />
  <circle
     style="fill:#000000;stroke:#000000;stroke-width:1.00157;stop-color:#000000"
     id="path1300"
     cx="174"
     cy="174"
     r="39.100609" />
  <g
     aria-label="47"
     id="text1408"
     style="font-size:61.6799px;line-height:1.25;font-family:'Ostrich Sans';-inkscape-font-specification:'Ostrich Sans';fill:#ffffff;stroke-width:3.42666">
    <path
       d="m 164.06951,183.43703 v 9.12863 c 0,1.23359 0.98688,2.22047 2.22048,2.22047 h 1.72704 c 1.23359,0 2.22047,-0.98688 2.22047,-2.22047 v -37.1313 c 0,-1.2336 -0.98688,-2.22048 -2.22047,-2.22048 h -1.66536 c -0.6168,0 -1.60368,0.6168 -1.91208,1.17192 l -13.26118,24.61028 v 2.22047 c 0,1.2336 0.98688,2.22048 2.22048,2.22048 z m 0,-6.10631 h -5.67455 l 5.73623,-9.99214 z"
       id="path1424" />
    <path
       d="m 196.82157,157.53147 v -2.09711 c 0,-1.2336 -0.98687,-2.22048 -2.22047,-2.22048 h -18.38061 c -1.17192,0 -2.1588,0.98688 -2.1588,2.22048 v 1.66535 c 0,1.2336 0.98688,2.22048 2.1588,2.22048 h 13.1995 l -13.56958,32.44363 c -0.6168,1.542 0.37008,3.02231 2.03544,3.02231 h 1.91207 c 0.74016,0 1.72704,-0.67848 2.03544,-1.35696 z"
       id="path1426" />
  </g>
</svg>
